<svg xmlns="http://www.w3.org/2000/svg" xmlns:xlink="http://www.w3.org/1999/xlink" width="500" zoomAndPan="magnify" viewBox="0 0 375 374.999991" height="500" preserveAspectRatio="xMidYMid meet" version="1.0"><defs><clipPath id="ef1db46b80"><path d="M 9.972656 9.972656 L 365.027344 9.972656 L 365.027344 365.027344 L 9.972656 365.027344 Z M 9.972656 9.972656 " clip-rule="nonzero"/></clipPath><clipPath id="571d5955c0"><path d="M 187.5 9.972656 C 89.453125 9.972656 9.972656 89.453125 9.972656 187.5 C 9.972656 285.546875 89.453125 365.027344 187.5 365.027344 C 285.546875 365.027344 365.027344 285.546875 365.027344 187.5 C 365.027344 89.453125 285.546875 9.972656 187.5 9.972656 Z M 187.5 9.972656 " clip-rule="nonzero"/></clipPath><clipPath id="7a596a5548"><path d="M 19 27 L 354.835938 27 L 354.835938 350 L 19 350 Z M 19 27 " clip-rule="nonzero"/></clipPath><clipPath id="a0481085b2"><path d="M 85 77.175781 L 262 77.175781 L 262 162 L 85 162 Z M 85 77.175781 " clip-rule="nonzero"/></clipPath><clipPath id="0901eeaf95"><path d="M 205 205 L 277.472656 205 L 277.472656 294 L 205 294 Z M 205 205 " clip-rule="nonzero"/></clipPath><clipPath id="46266b07a3"><path d="M 77.222656 149 L 217 149 L 217 297.675781 L 77.222656 297.675781 Z M 77.222656 149 " clip-rule="nonzero"/></clipPath></defs><g clip-path="url(#ef1db46b80)"><g clip-path="url(#571d5955c0)"><path fill="#000000" d="M 9.972656 9.972656 L 365.027344 9.972656 L 365.027344 365.027344 L 9.972656 365.027344 Z M 9.972656 9.972656 " fill-opacity="1" fill-rule="nonzero"/></g></g><g clip-path="url(#7a596a5548)"><path fill="#ecd07c" d="M 354.070312 121.820312 C 353.753906 122.527344 351.875 125.875 349.886719 129.261719 C 347.902344 132.644531 345.367188 137.226562 344.253906 139.4375 C 343.140625 141.652344 341.386719 144.496094 340.355469 145.761719 C 339.320312 147.027344 338.476562 148.402344 338.476562 148.816406 C 338.476562 149.226562 338.851562 151.277344 339.308594 153.371094 C 341.304688 162.496094 341.964844 169.910156 341.976562 183.277344 C 341.988281 197.148438 341.539062 202.179688 339.265625 213.71875 C 334.832031 236.203125 325.378906 257.644531 312.167969 275.179688 C 308.609375 279.90625 307.800781 280.886719 305.445312 283.324219 C 304.109375 284.707031 303.511719 285.265625 304.117188 284.566406 C 306.558594 281.742188 314.453125 270.335938 317.675781 264.976562 C 336.941406 232.933594 344.082031 195.410156 337.820312 159.050781 C 337.46875 157 336.9375 154.953125 336.640625 154.496094 C 336.230469 153.867188 334.539062 153.292969 329.558594 152.101562 C 325.960938 151.242188 322.925781 150.628906 322.816406 150.738281 C 322.707031 150.847656 323.285156 153.417969 324.105469 156.445312 C 325.871094 162.976562 327.46875 171.417969 328.398438 179.136719 C 329.234375 186.085938 329.339844 204.179688 328.585938 211.027344 C 326.996094 225.5 323.484375 239.671875 318.203125 252.945312 C 316.804688 256.460938 311.636719 266.933594 311.304688 266.933594 C 311.1875 266.933594 311.355469 266.328125 311.675781 265.589844 C 311.996094 264.847656 313.226562 262.007812 314.410156 259.273438 C 325.585938 233.484375 329.636719 204.363281 325.816406 177.273438 C 324.285156 166.40625 320.332031 150.542969 318.878906 149.4375 C 318.59375 149.21875 315.285156 147.59375 311.519531 145.820312 C 304.265625 142.40625 303.035156 141.597656 303.449219 140.519531 C 303.847656 139.488281 305.953125 138.925781 310.394531 138.667969 C 312.625 138.535156 314.535156 138.289062 314.644531 138.117188 C 314.75 137.941406 314.292969 136.589844 313.628906 135.105469 L 312.417969 132.410156 L 310 131.914062 C 302.359375 130.34375 295.019531 125.949219 291.453125 120.808594 C 289.28125 117.679688 291.023438 116.746094 298.765625 116.894531 C 302.0625 116.960938 303.226562 116.851562 303.226562 116.472656 C 303.226562 115.609375 298.949219 109.527344 293.804688 103.078125 C 290.804688 99.320312 290.75 99.277344 287.773438 98.382812 C 280.851562 96.300781 274 92.105469 267.578125 86.019531 C 265.066406 83.636719 264.238281 82.582031 264.238281 81.773438 C 264.242188 80.304688 265.457031 79.328125 267.28125 79.328125 C 269.339844 79.328125 269.207031 78.613281 266.816406 76.851562 C 238.78125 56.160156 205.519531 45.652344 171.550781 46.757812 C 155.574219 47.28125 142.667969 49.613281 127.382812 54.742188 C 100.550781 63.746094 76.367188 80.613281 58.554688 102.746094 C 53.738281 108.734375 52.191406 111.078125 49.464844 116.507812 C 41.039062 133.292969 35.613281 152.648438 34.035156 171.519531 C 33.414062 178.96875 33.761719 197.113281 34.652344 203.875 C 35.753906 212.195312 37.664062 220.992188 40.148438 229.195312 L 41.199219 232.660156 L 43.644531 232.382812 C 48.589844 231.824219 53.917969 233.058594 62.6875 236.796875 C 65.082031 237.816406 68.3125 239.074219 69.871094 239.585938 C 72.699219 240.515625 73.570312 241.320312 72.703125 242.191406 C 72.125 242.769531 62.566406 244.121094 58.925781 244.144531 C 54.34375 244.167969 51.980469 243.15625 45.359375 238.34375 C 44.382812 237.636719 43.417969 237.117188 43.210938 237.191406 C 42.535156 237.433594 48.714844 251.960938 49.769531 252.609375 C 50.023438 252.769531 51.589844 252.394531 53.246094 251.78125 C 57.039062 250.371094 62.898438 250.167969 66.210938 251.328125 C 72.867188 253.660156 89.667969 260.609375 89.859375 261.105469 C 90.289062 262.222656 89.007812 262.742188 82.691406 264.007812 C 69.433594 266.667969 63.035156 265.292969 53.464844 257.738281 C 52.839844 257.246094 52.214844 256.960938 52.078125 257.097656 C 51.5625 257.613281 60.953125 272.53125 64.21875 276.386719 L 65.382812 277.765625 L 68.976562 277.285156 C 71.621094 276.933594 73.550781 276.925781 76.261719 277.253906 C 84.722656 278.28125 88.28125 280.171875 103.527344 291.734375 C 112.746094 298.726562 113.628906 299.847656 110.714844 300.859375 C 108.515625 301.628906 98.539062 299.675781 92.753906 297.347656 C 84.703125 294.109375 78.519531 290.351562 72.535156 285.0625 C 70.996094 283.703125 69.734375 282.753906 69.734375 282.957031 C 69.734375 283.648438 76.210938 290.734375 80.964844 295.25 C 86.253906 300.269531 95.640625 307.9375 96.496094 307.9375 C 96.804688 307.9375 98.605469 307.566406 100.503906 307.109375 C 104.648438 306.117188 108.507812 306.054688 111.847656 306.921875 C 116.65625 308.171875 128.007812 313.023438 128.378906 313.988281 C 129.019531 315.648438 127.507812 316.378906 121.921875 317.125 C 118.4375 317.585938 114.195312 317.324219 110.378906 316.40625 L 109.34375 316.15625 L 110.304688 317 C 111.550781 318.097656 121.335938 323.042969 127.175781 325.53125 C 140.824219 331.34375 157.019531 335.410156 172.796875 336.988281 C 183.191406 338.027344 198.570312 337.550781 209.855469 335.835938 C 213.839844 335.230469 214.203125 335.234375 214.832031 335.875 C 216.488281 337.558594 212.90625 338.457031 198.921875 339.871094 C 192.558594 340.511719 172.183594 340.113281 165.746094 339.21875 C 140.980469 335.78125 119 327.515625 98.882812 314.078125 C 96.554688 312.523438 94.476562 311.25 94.265625 311.25 C 94.058594 311.25 93.878906 312.972656 93.863281 315.078125 C 93.851562 317.1875 93.632812 319.84375 93.375 320.980469 C 92.8125 323.480469 92.875 323.546875 98.847656 327.105469 C 103.121094 329.652344 103.746094 329.863281 103.738281 328.746094 C 103.730469 327.546875 102.597656 323.667969 102.070312 323.035156 C 101.496094 322.34375 101.820312 321.1875 102.589844 321.1875 C 103.691406 321.1875 108.28125 323.65625 109.898438 325.109375 C 111.992188 327 113.695312 330.328125 113.703125 332.554688 C 113.707031 333.476562 113.855469 334.460938 114.03125 334.742188 C 114.46875 335.421875 121.980469 338.539062 128.277344 340.644531 C 144.632812 346.117188 159.507812 348.515625 177.710938 348.621094 C 184.898438 348.660156 187.339844 348.792969 186.628906 349.105469 C 184.898438 349.859375 163.289062 349.636719 156.621094 348.796875 C 144.015625 347.203125 130.988281 343.988281 119.664062 339.667969 C 116.902344 338.617188 114.449219 337.753906 114.214844 337.753906 C 113.980469 337.753906 113.671875 338.046875 113.535156 338.410156 C 113.1875 339.316406 113.25 342.996094 113.652344 345.0625 C 114.277344 348.292969 112.597656 349.121094 110.425781 346.644531 C 108.429688 344.375 106.941406 340.914062 105.414062 334.972656 C 105.007812 333.394531 104.695312 333.078125 102.175781 331.699219 C 100.644531 330.863281 98.011719 329.367188 96.328125 328.375 C 94.648438 327.382812 93.03125 326.570312 92.742188 326.570312 C 92.421875 326.570312 91.964844 327.753906 91.578125 329.574219 C 90.589844 334.210938 90.496094 334.792969 90.074219 338.957031 C 89.859375 341.097656 89.515625 343.015625 89.316406 343.214844 C 88.464844 344.066406 87.574219 342.917969 86.578125 339.6875 C 84.324219 332.371094 83.761719 329.625 83.535156 324.804688 L 83.308594 319.929688 L 77.742188 315.335938 C 74.679688 312.8125 70.5 309.152344 68.449219 307.207031 C 66.089844 304.964844 64.578125 303.808594 64.328125 304.058594 C 63.6875 304.699219 60.878906 312.191406 58.585938 319.382812 C 57.410156 323.058594 56.183594 326.289062 55.855469 326.5625 C 53.507812 328.507812 50.871094 322.074219 50.941406 314.5625 C 50.980469 310.492188 52.175781 305.0625 54.582031 298.027344 C 55.160156 296.335938 55.636719 294.617188 55.636719 294.207031 C 55.636719 293.796875 53.941406 291.175781 51.867188 288.378906 C 49.796875 285.582031 47.136719 281.761719 45.957031 279.886719 C 44.78125 278.011719 43.625 276.472656 43.386719 276.46875 C 42.472656 276.453125 31.410156 287.5 29.226562 290.613281 C 27.980469 292.390625 26.800781 293.941406 26.609375 294.058594 C 26.414062 294.179688 25.949219 293.96875 25.574219 293.59375 C 25.058594 293.078125 24.957031 292.503906 25.160156 291.210938 C 26.296875 284.023438 29.738281 276.945312 35.570312 269.789062 C 36.796875 268.28125 37.800781 266.773438 37.800781 266.433594 C 37.800781 266.09375 36.804688 263.691406 35.585938 261.09375 C 34.367188 258.5 32.84375 255.023438 32.203125 253.371094 C 31.5625 251.722656 30.894531 250.371094 30.71875 250.371094 C 30.296875 250.371094 27.289062 253.949219 24.367188 257.925781 C 21.300781 262.105469 19.957031 262.21875 19.976562 258.308594 C 19.996094 255.101562 22.355469 249.894531 25.953125 245.113281 C 26.996094 243.726562 27.847656 242.316406 27.847656 241.972656 C 27.847656 241.632812 27.097656 238.394531 26.175781 234.78125 C 15.839844 194.214844 22.199219 151.585938 43.839844 116.394531 C 45.242188 114.117188 48.375 109.015625 50.800781 105.0625 C 62.761719 85.5625 75.664062 71.214844 92.515625 58.660156 C 123.886719 35.296875 163.417969 24.464844 202.269531 28.582031 C 222.71875 30.75 243.675781 37.261719 260.957031 46.816406 C 263.269531 48.09375 265.265625 49.039062 265.394531 48.914062 C 265.519531 48.785156 265.402344 47.984375 265.128906 47.128906 C 261.972656 37.277344 261.585938 34.507812 263.332031 34.257812 C 264.65625 34.070312 268.261719 36.871094 271.125 40.3125 C 274.382812 44.222656 281.074219 54.300781 283.855469 59.480469 C 286.046875 63.558594 286.53125 64.144531 291.085938 68.238281 C 293.769531 70.652344 296.96875 73.675781 298.195312 74.960938 C 299.421875 76.246094 300.507812 77.210938 300.605469 77.113281 C 300.707031 77.011719 300.496094 75.519531 300.140625 73.796875 C 299.636719 71.359375 299.492188 67.875 299.492188 58.046875 C 299.492188 51.101562 299.664062 44.96875 299.875 44.417969 C 300.726562 42.183594 302.78125 42.796875 305.847656 46.203125 C 311.171875 52.117188 312.140625 58.660156 310.066406 74.710938 C 309.496094 79.121094 309.03125 83.777344 309.03125 85.066406 C 309.03125 87.261719 309.175781 87.597656 311.355469 90.511719 C 314.234375 94.363281 319.261719 101.9375 321.042969 105.109375 C 321.78125 106.417969 322.507812 107.492188 322.664062 107.492188 C 322.816406 107.492188 323.179688 106.480469 323.464844 105.246094 C 323.753906 104.007812 325.199219 100.28125 326.675781 96.964844 C 328.15625 93.644531 329.941406 89.109375 330.640625 86.890625 C 332.507812 80.976562 332.542969 80.910156 333.605469 81.0625 C 335.503906 81.332031 337.398438 87.472656 337.414062 93.410156 C 337.429688 99.117188 336.429688 101.949219 332.230469 108.121094 C 330.375 110.847656 328.40625 113.558594 327.859375 114.140625 C 327.3125 114.722656 326.863281 115.378906 326.863281 115.601562 C 326.863281 115.824219 327.890625 118.277344 329.144531 121.046875 C 330.402344 123.820312 332.382812 128.890625 333.546875 132.320312 C 334.714844 135.746094 335.808594 138.550781 335.980469 138.550781 C 336.152344 138.550781 336.695312 137.445312 337.1875 136.097656 C 337.679688 134.746094 338.871094 132.464844 339.832031 131.027344 C 343.082031 126.167969 351.992188 118.007812 353.699219 118.332031 C 354.648438 118.511719 354.820312 120.128906 354.070312 121.820312 Z M 334.113281 143.078125 C 332.382812 137.078125 330.609375 131.984375 330.152344 131.699219 C 329.972656 131.589844 328.085938 131.78125 325.960938 132.125 C 323.835938 132.46875 320.742188 132.75 319.089844 132.75 C 315.511719 132.75 315.472656 132.855469 317.464844 136.894531 L 318.792969 139.585938 L 324.03125 142.324219 C 326.914062 143.828125 330.574219 145.925781 332.167969 146.984375 C 333.761719 148.039062 335.179688 148.90625 335.320312 148.90625 C 335.746094 148.90625 335.628906 148.328125 334.113281 143.078125 Z M 323.582031 116.1875 C 319.648438 108.351562 313.535156 98.203125 312.5 97.800781 C 312.242188 97.699219 311.28125 97.871094 310.363281 98.1875 C 307.792969 99.074219 303.796875 99.617188 299.828125 99.617188 C 297.847656 99.617188 296.136719 99.765625 296.027344 99.941406 C 295.917969 100.117188 296.949219 101.746094 298.316406 103.566406 C 300.644531 106.660156 304.644531 112.539062 307.089844 116.457031 C 308.015625 117.941406 308.546875 118.304688 310.980469 119.109375 C 315.253906 120.523438 319.984375 122.625 324.035156 124.902344 C 326.039062 126.03125 327.867188 126.957031 328.097656 126.957031 C 328.699219 126.957031 327.25 123.496094 323.582031 116.1875 Z M 303.84375 86.164062 C 300.007812 81.6875 295.792969 77.261719 291.585938 73.289062 L 288.480469 70.351562 L 285.328125 70.113281 C 278.625 69.605469 273.214844 65.269531 269.070312 57.082031 C 267.816406 54.609375 266.066406 53.449219 255.53125 48.109375 C 239.265625 39.867188 222.503906 34.882812 202.863281 32.449219 C 196.484375 31.660156 175.566406 31.78125 168.648438 32.652344 C 139.875 36.265625 113.191406 47.410156 91.09375 65.050781 C 86.433594 68.769531 80.878906 73.734375 80.378906 74.628906 C 79.898438 75.484375 80.097656 75.363281 84.859375 71.933594 C 106.773438 56.148438 130.230469 47.070312 158.488281 43.433594 C 165.371094 42.550781 184.75 42.421875 190.835938 43.222656 C 211.996094 46.007812 227.675781 50.546875 243.710938 58.523438 C 255.941406 64.605469 265.457031 70.894531 276.0625 79.902344 C 276.808594 80.535156 279.410156 81.628906 282.554688 82.628906 C 285.445312 83.550781 292.054688 85.882812 297.25 87.820312 C 302.445312 89.753906 306.949219 91.339844 307.257812 91.339844 C 308.09375 91.339844 307.472656 90.398438 303.84375 86.164062 Z M 86.148438 304.675781 C 81.203125 300.589844 75.628906 295.335938 71.441406 290.8125 C 69.300781 288.5 67.433594 286.558594 67.292969 286.503906 C 67.152344 286.445312 67.03125 288.402344 67.023438 290.851562 C 67.011719 293.742188 66.757812 296.175781 66.300781 297.789062 L 65.597656 300.273438 L 71.296875 305.863281 C 77.265625 311.722656 83.078125 316.632812 84.035156 316.632812 C 84.347656 316.632812 84.804688 316.027344 85.054688 315.285156 C 85.304688 314.546875 86.335938 312.542969 87.351562 310.835938 C 88.363281 309.125 89.199219 307.613281 89.210938 307.472656 C 89.21875 307.332031 87.84375 306.074219 86.148438 304.675781 Z M 58.824219 275.503906 C 57.15625 273.183594 54.515625 269.234375 52.957031 266.726562 C 51.398438 264.222656 50.046875 262.085938 49.953125 261.976562 C 49.601562 261.574219 49.097656 262.953125 48.859375 264.964844 C 48.722656 266.113281 47.933594 268.492188 47.109375 270.25 L 45.605469 273.445312 L 47.933594 277.207031 C 50.859375 281.929688 56.523438 289.824219 57.121094 290.011719 C 57.5625 290.148438 61.832031 281.34375 61.847656 280.265625 C 61.851562 279.96875 60.492188 277.824219 58.824219 275.503906 Z M 44.921875 252.121094 C 43.820312 249.90625 42.386719 246.789062 41.734375 245.191406 C 41.085938 243.597656 40.378906 242.0625 40.167969 241.78125 C 39.890625 241.410156 38.953125 242.109375 36.71875 244.34375 C 35.035156 246.03125 33.65625 247.53125 33.65625 247.671875 C 33.65625 248.570312 39.839844 262.824219 40.574219 263.613281 C 40.90625 263.972656 46.855469 257.636719 46.890625 256.886719 C 46.910156 256.480469 46.023438 254.339844 44.921875 252.121094 Z M 37.421875 233.789062 C 29.425781 211.023438 27.246094 182.660156 31.574219 157.625 C 32.023438 155.019531 32.328125 152.828125 32.253906 152.75 C 31.796875 152.292969 29.589844 160.007812 28.085938 167.335938 C 24.292969 185.773438 24.152344 206.277344 27.691406 225.105469 C 28.878906 231.421875 30.667969 238.820312 31.125 239.300781 C 31.507812 239.699219 38.21875 236.671875 38.21875 236.101562 C 38.21875 236.074219 37.859375 235.035156 37.421875 233.789062 Z M 37.421875 233.789062 " fill-opacity="1" fill-rule="nonzero"/></g><g clip-path="url(#a0481085b2)"><path fill="#ecd07c" d="M 104.039062 161.453125 C 110.609375 117.394531 136.710938 85.640625 187.238281 85.640625 C 207.574219 85.640625 222.144531 88.691406 232.992188 94.109375 C 243.496094 99.527344 247.902344 107.3125 250.273438 133.390625 C 251.972656 134.410156 255.359375 134.070312 256.378906 132.714844 C 257.054688 116.457031 259.425781 93.089844 261.460938 84.285156 C 243.832031 82.59375 224.515625 77.175781 200.453125 77.175781 C 173.679688 77.175781 154.703125 81.917969 135.722656 90.378906 C 113.070312 100.746094 95.027344 120.257812 85.382812 142.53125 C 92.226562 147.117188 99.113281 154.199219 104.039062 161.453125 Z M 104.039062 161.453125 " fill-opacity="1" fill-rule="nonzero"/></g><g clip-path="url(#0901eeaf95)"><path fill="#ecd07c" d="M 276.703125 205.871094 C 268.230469 206.542969 260.4375 206.886719 246.539062 206.886719 C 232.640625 206.886719 218.414062 205.871094 205.875 205.871094 C 204.855469 206.542969 204.855469 210.273438 205.875 210.945312 C 214.6875 211.964844 217.058594 211.964844 222.484375 212.976562 C 233.332031 214.671875 235.363281 218.398438 236.378906 230.585938 C 237.398438 241.761719 236.378906 257.683594 235.699219 268.519531 C 235.03125 278.226562 224.710938 289.449219 205.757812 290.207031 C 205.757812 292.976562 205.621094 291.25 205.621094 293.953125 C 227.371094 293.953125 258.234375 285.625 263.148438 284.773438 C 263.824219 284.09375 264.164062 281.050781 263.824219 280.03125 C 257.386719 278 257.046875 276.980469 256.371094 270.546875 C 255.351562 262.082031 256.03125 241.082031 256.710938 230.585938 C 257.386719 220.765625 258.742188 215.34375 264.84375 213.65625 C 267.550781 212.640625 270.601562 211.960938 276.367188 210.945312 C 277.382812 210.273438 277.382812 206.882812 276.703125 205.871094 Z M 276.703125 205.871094 " fill-opacity="1" fill-rule="nonzero"/></g><g clip-path="url(#46266b07a3)"><path fill="#ecd07c" d="M 149.316406 260.167969 C 150.949219 261.796875 152.695312 263.195312 154.054688 265.109375 C 154.398438 265.019531 154.65625 265.121094 154.839844 265.386719 C 157.171875 267.019531 159.378906 268.832031 161.988281 270.066406 C 162.46875 270.328125 162.75 270.742188 163.019531 271.175781 C 163.871094 272.703125 165.152344 273.734375 166.472656 274.777344 C 167.828125 275.761719 169.136719 276.933594 170.664062 277.714844 C 173.636719 279.550781 176.566406 281.367188 179.476562 283.164062 C 180.960938 283.449219 182.210938 284.242188 183.953125 285.222656 C 181.890625 285.464844 180.578125 284.609375 179.214844 284.144531 L 175.832031 283.265625 C 174.722656 282.925781 173.667969 282.453125 172.617188 281.992188 C 171.257812 281.375 169.898438 280.796875 168.535156 280.246094 L 164.632812 278.238281 C 161.953125 277.074219 159.566406 275.429688 157.042969 274.019531 C 153.433594 271.714844 150.082031 269.082031 146.785156 266.3125 C 144.636719 264.636719 142.855469 262.539062 140.773438 260.71875 C 139.457031 259.28125 138.578125 257.5625 137.675781 255.914062 C 136.058594 252.4375 134.464844 248.992188 133.40625 245.3125 C 131.871094 240.503906 130.46875 235.636719 129.167969 230.722656 C 128.40625 227.320312 127.65625 223.949219 127.195312 220.460938 C 127.136719 220.078125 127.164062 219.6875 127.148438 219.296875 L 126.871094 217.570312 C 126.621094 216.4375 126.492188 215.246094 126.296875 214.089844 C 126.019531 213.539062 125.925781 212.957031 126.023438 212.34375 C 125.152344 209.246094 124.558594 206.019531 123.789062 202.84375 C 123.597656 201.925781 123.5 201.054688 124.113281 200.289062 C 125.007812 199.175781 124.980469 197.894531 124.828125 196.609375 C 124.71875 195.523438 124.609375 194.410156 124.300781 193.367188 C 123.617188 191.046875 122.316406 189.210938 119.851562 188.59375 C 118.226562 188.191406 117.207031 188.683594 116.371094 190.15625 C 115.238281 192.183594 115.386719 194.316406 116.332031 196.335938 C 117.164062 198.125 118.476562 199.574219 120.4375 200.078125 C 121.21875 200.277344 121.390625 200.800781 121.6875 201.488281 C 123.214844 204.949219 123.710938 208.589844 124.230469 212.1875 C 125.230469 219.554688 126.617188 226.800781 128.769531 233.761719 C 129.441406 236.152344 130.207031 238.484375 130.957031 240.820312 C 131.609375 243.21875 132.464844 245.488281 133.195312 247.847656 C 133.3125 248.210938 133.320312 248.613281 133.375 249 C 133.574219 249.539062 133.8125 250.0625 134.046875 250.570312 C 134.269531 251.09375 134.738281 251.582031 134.449219 252.496094 C 133.285156 251.683594 132.707031 250.660156 132.058594 249.753906 C 131.734375 249.78125 131.414062 249.765625 131.441406 249.257812 C 130.503906 247.519531 129.371094 245.890625 128.332031 244.199219 C 127.324219 242.488281 126.25 240.800781 125.164062 239.097656 C 123.179688 235.605469 121.128906 232.066406 119.390625 228.351562 C 119.03125 227.613281 118.6875 226.863281 118.269531 226.148438 C 116.863281 223.4375 115.324219 220.71875 114.007812 217.90625 C 112.589844 214.882812 110.800781 212.0625 108.976562 209.265625 C 107.074219 206.476562 105.925781 203.277344 104.636719 200.140625 C 104.488281 199.773438 104.5625 199.300781 104.53125 198.878906 C 104.417969 198.683594 104.414062 198.488281 104.5 198.285156 C 104.234375 197.664062 104.109375 197.023438 104.257812 196.34375 L 104.054688 194.425781 C 103.773438 191.773438 103.585938 189.140625 103.402344 186.496094 C 103.378906 186.09375 103.507812 185.683594 103.570312 185.277344 C 103.160156 185.042969 103.148438 184.667969 103.234375 184.261719 L 102.445312 177.65625 C 101.792969 171.667969 99.773438 166.273438 96.367188 161.597656 C 95.171875 159.949219 93.757812 158.570312 92.09375 157.484375 C 89.515625 155.824219 87.34375 153.796875 85.101562 152.15625 L 82.398438 150.371094 C 81.5 149.871094 80.601562 149.742188 79.734375 149.484375 C 79.398438 149.402344 78.957031 149.390625 78.535156 149.390625 C 78.277344 149.390625 77.96875 149.492188 77.796875 149.636719 C 77.441406 149.941406 77.457031 150.191406 77.433594 150.445312 C 77.339844 152.316406 77.910156 155.75 78.425781 159.425781 C 78.75 161.53125 79.140625 163.859375 79.601562 166.132812 C 80.816406 172.25 83.394531 178.0625 86.074219 183.976562 C 86.839844 185.6875 87.984375 187.054688 89.1875 188.371094 C 92.859375 192.394531 96.839844 196.128906 100.441406 200.210938 C 100.652344 200.449219 100.832031 200.769531 101.082031 200.894531 C 103.289062 201.964844 104.167969 204.121094 105.175781 206.253906 C 105.929688 207.769531 106.753906 209.285156 108.078125 210.355469 C 108.894531 211.011719 109.324219 212.007812 109.84375 212.925781 C 113.136719 218.519531 115.640625 224.34375 118.476562 230.058594 C 119.96875 233.363281 121.8125 236.511719 123.488281 239.667969 C 123.917969 240.367188 124.222656 241.132812 124.578125 241.867188 C 124.945312 241.984375 125.125 242.242188 125.183594 242.613281 C 126.457031 244.089844 127.1875 245.882812 128.261719 247.46875 C 131.730469 253.363281 136.019531 258.644531 140.652344 263.328125 C 141.429688 264.054688 142.109375 264.882812 142.832031 265.667969 C 143.738281 266.652344 144.761719 267.496094 145.792969 268.324219 C 145.992188 268.488281 146.117188 268.785156 145.839844 268.992188 C 145.71875 269.082031 145.429688 269.09375 145.292969 269.011719 L 143.175781 267.75 L 141.214844 266.261719 C 139.660156 265.421875 137.96875 264.644531 136.421875 263.679688 C 134.902344 262.691406 133.371094 261.652344 131.855469 260.535156 C 129.402344 258.671875 127.019531 256.898438 124.203125 255.542969 C 121.746094 254.21875 119.464844 252.515625 117.1875 250.652344 C 115.019531 248.753906 113 246.644531 110.886719 244.511719 C 108.546875 241.902344 106.1875 239.070312 103.996094 236.246094 C 103.109375 235.097656 102.199219 233.898438 101.132812 232.964844 C 97.695312 229.96875 95.742188 225.714844 93.519531 221.734375 C 93.097656 220.964844 93.332031 220.179688 93.285156 219.394531 C 93.097656 216.507812 92.253906 214.015625 90.375 211.957031 C 89.464844 210.964844 88.460938 210.703125 87.351562 210.984375 C 85.523438 211.445312 84.191406 212.769531 83.378906 214.667969 C 82.390625 216.90625 83.265625 219.082031 84.675781 220.925781 C 86.089844 222.78125 87.707031 224.246094 89.683594 225.0625 L 90.8125 224.878906 L 91.898438 223.765625 C 92.324219 223.3125 92.761719 223.261719 93.117188 223.890625 C 93.769531 224.988281 94.507812 226.0625 94.996094 227.242188 C 95.980469 229.570312 97.351562 231.453125 99.039062 233.1875 C 101.410156 235.667969 103.363281 238.394531 105.59375 241.078125 C 111.058594 248.027344 117.4375 254.402344 124.925781 258.207031 C 127.136719 259.289062 129.015625 260.765625 131.066406 262.238281 C 132.605469 263.40625 134.167969 264.4375 135.757812 265.394531 C 137.4375 266.28125 139.082031 267.144531 140.613281 268.144531 C 144.46875 270.453125 148.394531 272.359375 152.40625 273.84375 C 154.585938 274.851562 156.589844 276.226562 158.644531 277.507812 C 166.425781 282.253906 175.179688 285.410156 184.304688 288.058594 C 188.507812 289.058594 192.777344 290.195312 197.054688 291.292969 C 197.863281 291.390625 198.675781 291.460938 199.480469 291.601562 C 199.949219 291.683594 200.480469 291.800781 200.453125 292.558594 C 199.570312 292.664062 198.660156 292.769531 197.75 292.875 C 196.105469 293.199219 194.421875 293.335938 192.738281 293.453125 C 191.050781 293.515625 189.367188 293.394531 187.679688 293.503906 L 182.488281 293.722656 L 177.265625 293.464844 C 175.519531 293.355469 173.726562 293.433594 171.972656 293.277344 C 170.210938 293.121094 168.429688 293.019531 166.613281 293.003906 C 165.960938 292.992188 165.296875 292.773438 164.632812 292.648438 C 164.3125 292.832031 163.976562 292.78125 163.648438 292.625 L 159.222656 290.859375 C 157.109375 290.023438 154.960938 289.269531 152.914062 288.234375 C 150.867188 287.230469 148.667969 286.429688 146.769531 285.125 C 141.742188 281.949219 136.632812 278.972656 131.910156 275.261719 C 129.375 273.269531 126.664062 271.570312 124.125 269.769531 C 122.808594 268.898438 121.460938 268.050781 120.082031 267.214844 L 116.160156 264.582031 C 115.195312 263.945312 114.101562 263.535156 113.042969 263.128906 C 110.726562 262.285156 108.742188 261.117188 106.652344 259.734375 C 104.609375 258.351562 102.539062 256.722656 100.796875 254.855469 C 98.0625 252.058594 94.972656 249.625 92.675781 246.359375 C 92.390625 245.960938 91.992188 245.625 91.570312 245.777344 C 90.992188 245.988281 91.0625 246.695312 91.089844 247.308594 C 91.105469 247.671875 91.238281 248.0625 91.34375 248.433594 C 91.851562 250.308594 92.453125 252.195312 93.160156 254.097656 L 94.351562 257.523438 C 94.753906 257.941406 94.972656 258.4375 94.972656 259.023438 C 96.667969 262.898438 98.40625 266.804688 100.554688 270.652344 C 102.175781 273.402344 103.9375 275.914062 106.140625 278.253906 C 110.800781 283.40625 116.3125 287.613281 122.085938 291.148438 C 125.863281 293.257812 129.484375 294.664062 133.390625 295.335938 C 136.605469 295.910156 139.574219 296.695312 142.78125 297.136719 C 144.671875 297.4375 146.625 297.679688 148.285156 297.433594 C 151.808594 297.03125 155.625 297.03125 159.148438 296.835938 C 161.417969 296.757812 163.734375 296.578125 165.867188 295.925781 C 168.613281 295.054688 171.324219 295.390625 174.136719 295.394531 C 178.261719 295.484375 182.273438 295.65625 186.277344 295.355469 C 188.273438 295.28125 190.265625 295.339844 192.246094 295.335938 C 194.226562 295.183594 196.203125 295.019531 198.136719 294.710938 C 200.621094 294.398438 203.125 294.1875 205.625 293.949219 C 206.636719 293.851562 212.832031 293.675781 214.101562 293.464844 C 214.554688 293.390625 215.921875 293.070312 216.316406 292.832031 C 216.707031 292.59375 214.421875 292.042969 214.375 291.582031 C 214.269531 290.605469 213.46875 291.042969 212.917969 291.105469 C 211.996094 291.214844 210.9375 290.773438 210.007812 290.71875 C 208.566406 290.640625 207.140625 290.542969 205.761719 290.203125 C 205.117188 290.082031 203.183594 290.035156 202.390625 289.898438 C 200.371094 289.496094 198.398438 288.960938 196.410156 288.609375 C 192.28125 288.046875 188.488281 286.238281 184.988281 284.433594 C 183.304688 283.613281 181.710938 282.515625 180.074219 281.683594 C 178.476562 280.742188 176.796875 280.082031 175.382812 278.90625 C 172.648438 276.832031 169.699219 275.382812 167.316406 273.179688 C 166.585938 272.570312 165.921875 271.890625 165.316406 271.191406 C 164.503906 270.199219 163.898438 269.027344 162.929688 268.238281 C 161.632812 267.105469 161.265625 265.417969 161.101562 263.617188 C 160.9375 262.320312 161.007812 260.980469 161.070312 259.695312 C 161.128906 257.519531 160.964844 255.425781 160.941406 253.398438 C 160.925781 252.273438 160.847656 251.269531 160.796875 250.238281 C 160.777344 249.152344 160.726562 248.136719 160.609375 247.1875 C 160.316406 245.394531 160.070312 243.425781 159.355469 241.792969 C 158.261719 238.949219 156.753906 236.238281 154.746094 233.464844 L 151.847656 229.28125 C 150.261719 226.644531 148.980469 223.757812 148.355469 220.492188 C 148.199219 219.773438 148.097656 219.046875 147.4375 218.515625 C 147.019531 218.179688 146.289062 218.128906 145.867188 218.527344 C 145.585938 218.792969 145.34375 219.054688 145.128906 219.351562 C 143.820312 221.203125 142.714844 223.191406 142.074219 225.398438 C 141.308594 228.351562 140.507812 231.460938 139.894531 234.519531 C 139.542969 236.324219 139.410156 238.167969 139.484375 240.003906 C 139.652344 241.757812 140.003906 243.535156 140.496094 245.324219 C 141.09375 247.324219 142.039062 249.121094 142.949219 250.984375 C 143.945312 252.757812 145.144531 254.363281 146.230469 256.089844 C 146.488281 256.550781 146.804688 256.929688 147.097656 257.351562 C 147.824219 258.304688 148.996094 258.871094 149.316406 260.167969 Z M 149.316406 260.167969 " fill-opacity="1" fill-rule="nonzero"/></g></svg>